<?xml version="1.0" encoding="UTF-8"?>
<svg version="1.1" xmlns="http://www.w3.org/2000/svg" width="310" height="490">
<path d="M0 0 C0.14040582 21.04521347 0.24608631 42.09034927 0.31087303 63.13593674 C0.34175951 72.90865524 0.38384 82.68108205 0.45263672 92.45361328 C0.5125987 100.97526638 0.55118697 109.49670815 0.56453097 118.01856637 C0.57232644 122.52741183 0.59053753 127.0356529 0.63438034 131.54430389 C0.67538766 135.7961831 0.687613 140.04721435 0.67864609 144.29927254 C0.68028427 145.85200944 0.69205155 147.40477743 0.71523285 148.95734215 C0.88979117 161.261522 -1.79340159 171.2834093 -10.36523438 180.48339844 C-13.44466713 183.34024376 -16.80062383 185.73812801 -20.25 188.125 C-21.85954433 189.26278133 -23.46891447 190.40080912 -25.078125 191.5390625 C-25.89603516 192.11301758 -26.71394531 192.68697266 -27.55664062 193.27832031 C-31.39640272 195.98395603 -35.19685349 198.74326161 -39 201.5 C-40.49979372 202.58361889 -41.99979426 203.6669516 -43.5 204.75 C-44.61375 205.554375 -44.61375 205.554375 -45.75 206.375 C-48 208 -50.25 209.625 -52.5 211.25 C-53.6142334 212.05473755 -53.6142334 212.05473755 -54.75097656 212.87573242 C-56.24768701 213.95667191 -57.74443168 215.03756401 -59.24121094 216.1184082 C-63.04182637 218.8629754 -66.84180298 221.60841966 -70.640625 224.35546875 C-77.97333833 229.65682231 -85.31361844 234.94655437 -92.68164062 240.19873047 C-100.48061546 245.76274195 -108.23708119 251.38586232 -116 257 C-121.30655311 260.83769566 -126.6143272 264.67367227 -131.92626953 268.50390625 C-133.25339886 269.46136428 -134.57995192 270.41962189 -135.90576172 271.37890625 C-139.91757091 274.2808357 -143.94567154 277.15774325 -148 280 C-148.60408691 280.42410156 -149.20817383 280.84820312 -149.83056641 281.28515625 C-164.71983902 291.66851576 -182.93411793 303.6418501 -202 301 C-208.06490811 299.74363304 -213.11538478 297.90769217 -218 294 C-218.55171875 293.56429688 -219.1034375 293.12859375 -219.671875 292.6796875 C-230.97089864 282.73054722 -235.40308554 265.75798284 -236.41326904 251.18795776 C-236.66536769 245.99008402 -236.71638287 240.79301986 -236.7421875 235.58984375 C-236.76017792 233.68274198 -236.77842236 231.77564259 -236.79690552 229.86854553 C-236.82957343 225.90781861 -236.84523233 221.94742397 -236.85107422 217.98657227 C-236.86192635 212.92518137 -236.9377481 207.86691927 -237.02856255 202.80641842 C-237.08811937 198.88312844 -237.10252086 194.96060035 -237.10452652 191.03689766 C-237.11289982 189.17054172 -237.13764507 187.30418026 -237.17956161 185.43827629 C-237.47947836 170.96056711 -237.47947836 170.96056711 -233.84112549 166.13911438 C-231.3139836 164.08879035 -228.86296385 162.53274117 -226 161 C-224.63273094 160.03523316 -223.27568241 159.05550387 -221.9375 158.05078125 C-220.62704316 157.13508987 -219.31449438 156.22238589 -218 155.3125 C-216.51893306 154.27689663 -215.03848486 153.24040794 -213.55859375 152.203125 C-212.80690918 151.67654297 -212.05522461 151.14996094 -211.28076172 150.60742188 C-207.51921854 147.95638352 -203.79003187 145.26106084 -200.0625 142.5625 C-199.31677734 142.02278564 -198.57105469 141.48307129 -197.80273438 140.92700195 C-196.29034735 139.83195428 -194.77814043 138.73665781 -193.26611328 137.64111328 C-189.51355206 134.92351831 -185.7565875 132.21202514 -182 129.5 C-177.45220514 126.21611457 -172.90490621 122.93154952 -168.359375 119.64453125 C-161.02666167 114.34317769 -153.68638156 109.05344563 -146.31835938 103.80126953 C-138.51938454 98.23725805 -130.76291881 92.61413768 -123 87 C-114.12132185 80.57894591 -105.24076658 74.16146398 -96.31835938 67.80126953 C-88.51938454 62.23725805 -80.76291881 56.61413768 -73 51 C-64.12132185 44.57894591 -55.24076658 38.16146398 -46.31835938 31.80126953 C-37.67899718 25.6377017 -29.08896718 19.40528896 -20.49072266 13.18457031 C-18.81851274 11.97480426 -17.14615256 10.76524587 -15.47363281 9.5559082 C-13.89840643 8.41691553 -12.32352159 7.27745031 -10.74902344 6.13745117 C-10.03907227 5.6241626 -9.32912109 5.11087402 -8.59765625 4.58203125 C-7.97383057 4.13061768 -7.35000488 3.6792041 -6.70727539 3.21411133 C-2.18761311 0 -2.18761311 0 0 0 Z " fill="#FDC907" transform="translate(288,186)"/>
<path d="M0 0 C8.72778283 0.62027735 17.23950646 2.26243179 25.81469727 3.92407227 C27.394876 4.22688421 28.97512924 4.52930756 30.55545044 4.83137512 C34.83304005 5.65015927 39.10956157 6.47440061 43.3859036 7.29967237 C47.91047275 8.17189616 52.43599745 9.03913467 56.96141052 9.90696716 C64.59226459 11.37103337 72.22249715 12.83830067 79.85229492 14.30786133 C90.45989807 16.35096825 101.06856792 18.38848946 111.67748559 20.42475808 C120.05733471 22.03338645 128.43690633 23.64345992 136.81640625 25.25390625 C137.68549409 25.42093339 138.55458193 25.58796053 139.45000577 25.7600491 C142.01654408 26.25336989 144.58304984 26.74685974 147.14955139 27.2403717 C147.98491025 27.40090068 148.82026911 27.56142966 149.68094188 27.72682315 C153.80950175 28.52071011 157.93738749 29.3178421 162.06400394 30.12177372 C169.84838663 31.63625421 177.63521878 33.12478006 185.43975383 34.53233176 C189.20395726 35.21359986 192.9651393 35.9107398 196.72610462 36.60963619 C198.51628634 36.93803462 200.30783533 37.25908026 202.10076821 37.5721103 C212.70046419 39.42536766 221.39462134 41.07971242 229.0859375 49.203125 C229.51132812 49.87859375 229.93671875 50.5540625 230.375 51.25 C231.03628906 52.24773438 231.03628906 52.24773438 231.7109375 53.265625 C235.2757981 60.8274505 236.44009948 68.01854488 236.34057617 76.31494141 C236.34101425 77.29175873 236.34145233 78.26857605 236.34190369 79.2749939 C236.33983253 82.46739487 236.31658097 85.65925456 236.29296875 88.8515625 C236.28736684 91.07929192 236.28309956 93.30702507 236.28010559 95.53475952 C236.26870371 101.37089412 236.2392768 107.20680133 236.20599365 113.04284668 C236.17519207 119.00900192 236.16157876 124.97519425 236.14648438 130.94140625 C236.11440248 142.62770354 236.06326281 154.31383279 236 166 C234.2626811 164.90070887 232.52618965 163.80010997 230.79003906 162.69897461 C229.82294006 162.08622177 228.85584106 161.47346893 227.85943604 160.84214783 C223.74436393 158.19107571 219.74437982 155.39082898 215.75 152.5625 C214.00154749 151.33168255 212.25283933 150.10122822 210.50390625 148.87109375 C209.6030127 148.23671387 208.70211914 147.60233398 207.77392578 146.94873047 C203.08970187 143.65798278 198.38845932 140.39177511 193.6875 137.125 C192.72811523 136.45799072 191.76873047 135.79098145 190.78027344 135.10375977 C188.82803308 133.74648014 186.8757217 132.38930265 184.92333984 131.03222656 C180.11469838 127.68938945 175.30741108 124.34460619 170.5 121 C168.58333997 119.66665713 166.6666733 118.3333238 164.75 117 C130.25 93 95.75 69 61.25 45 C60.3010083 44.33983887 59.3520166 43.67967773 58.37426758 42.99951172 C56.46001577 41.66784415 54.54579046 40.3361385 52.6315918 39.00439453 C46.82777054 34.96665313 41.02303311 30.93023429 35.21728516 26.89526367 C33.29823561 25.56057423 31.37992683 24.224819 29.46240234 22.88793945 C24.70230963 19.56936436 19.93328773 16.2653888 15.14453125 12.98828125 C14.21535889 12.34842285 13.28618652 11.70856445 12.32885742 11.04931641 C10.56637851 9.83571242 8.79978992 8.62804869 7.02856445 7.42724609 C6.24827881 6.88793457 5.46799316 6.34862305 4.6640625 5.79296875 C3.97779785 5.3239917 3.2915332 4.85501465 2.58447266 4.37182617 C1 3 1 3 0 0 Z " fill="#273A8E" transform="translate(52,5)"/>
<path d="" fill="#1A275F" transform="translate(0,0)"/>
</svg>
